<svg version="1.2" xmlns="http://www.w3.org/2000/svg" viewBox="0 0 118 18" width="118" height="18"><style>.a{display:none}.b{display:none;fill:#1f3bb3}.c{fill:#478cf7}</style><path fill-rule="evenodd" class="a" d="m4.5 16.7q-1.5-0.6-2.4-1.8-1-1.2-1.2-2.8l2.9-0.4q0.3 1.4 1.5 2.2 1.1 0.8 2.6 0.8 0.9 0 1.7-0.2 0.8-0.3 1.2-0.8 0.5-0.6 0.5-1.3 0-1.4-1.8-1.9l-4.3-1.3q-0.5-0.2-1.2-0.4-0.6-0.3-1.2-0.8-0.5-0.5-0.9-1.2-0.4-0.7-0.4-1.8 0-1.6 0.8-2.7 0.9-1.1 2.2-1.6 1.4-0.6 3.1-0.6 2.5 0 4.2 1.3 1.8 1.3 2.3 3.6l-3 0.5q-0.2-1.3-1.3-2-1-0.8-2.3-0.8-0.8 0-1.5 0.2-0.7 0.3-1.1 0.8-0.5 0.5-0.5 1.1 0 0.6 0.4 1 0.4 0.4 0.9 0.6 0.6 0.3 1.1 0.4l3 0.8q0.6 0.2 1.4 0.5 0.7 0.2 1.4 0.7 0.7 0.5 1.2 1.3 0.4 0.9 0.4 2.1 0 1.7-0.9 2.8-0.9 1.2-2.4 1.8-1.5 0.5-3.2 0.5-1.8 0-3.2-0.6zm17.1 0.5q-1.2 0-2.1-0.4-0.9-0.4-1.4-1.3-0.5-0.8-0.5-1.7 0-0.8 0-1.9v-5.1h-2.3v-2.2h2.3v-3.5h2.8v3.5h3.6v2.2h-3.6v5q0 0.7 0 1.3 0 0.5 0.2 0.9 0.4 0.7 1.3 0.8 0.9 0 2.1-0.1v2.3q-1.2 0.2-2.4 0.2zm6.3-0.4q-1-0.5-1.4-1.3-0.5-0.9-0.5-1.9 0-1.4 0.7-2.3 0.6-0.9 2.1-1.4 1-0.3 2.4-0.6 1.4-0.2 3-0.4-0.1-1.1-0.7-1.6-0.6-0.5-1.8-0.5-0.9 0-1.6 0.4-0.8 0.4-1.1 1.3l-2.6-0.8q0.5-1.6 1.8-2.5 1.3-1 3.5-1 1.6 0 2.9 0.6 1.3 0.5 1.9 1.7 0.3 0.7 0.4 1.4 0 0.7 0 1.5v7.6h-2.4v-1.7q-0.8 1.1-1.8 1.6-1.1 0.4-2.6 0.4-1.3 0-2.2-0.5zm4.4-2q0.7-0.3 1.1-0.8 0.4-0.5 0.5-0.9 0.2-0.4 0.2-1 0.1-0.5 0.1-1-1.5 0.3-2.4 0.4-0.9 0.2-1.6 0.4-0.7 0.3-1.1 0.7-0.4 0.4-0.4 1 0 0.6 0.5 1.1 0.5 0.4 1.5 0.4 0.9 0 1.6-0.3zm7.6-10.2h2.5v2q0.2-0.4 0.5-0.8 0.3-0.3 0.7-0.6 0.7-0.4 1.6-0.6 0.9-0.1 1.7 0v2.6q-0.5-0.2-1.3-0.1-0.7 0-1.2 0.4-0.9 0.4-1.3 1.3-0.4 0.8-0.4 1.9v6.3h-2.8z"/><path fill-rule="evenodd" class="b" d="m53.2 0.4h4l5.3 16.6h-2.9l-1.1-3.6h-6.6l-1.1 3.6h-2.8zm4.4 10.4l-2.4-7.7-2.5 7.7zm8.9 5.6q-1.2-0.8-2-2.3-0.7-1.5-0.7-3.3 0-1.9 0.8-3.4 0.7-1.5 2-2.4 1.3-0.8 3-0.8 1 0 1.7 0.2 0.8 0.3 1.4 0.7v-4.7h2.8v16.6h-2.4v-1q-0.7 0.6-1.6 1-0.9 0.3-2 0.3-1.7 0-3-0.9zm5.8-2.7q0.8-1.1 0.8-2.9 0-1.9-0.8-3-0.7-1.1-2.3-1.1-1.1 0-1.8 0.5-0.7 0.6-1.1 1.5-0.3 0.9-0.3 2.1 0 1.1 0.3 2 0.4 0.9 1.1 1.5 0.7 0.5 1.7 0.5 1.7 0 2.4-1.1zm6.4-9.2h2.5v1.4q0.6-0.8 1.5-1.2 0.9-0.5 2.1-0.5 1.3 0 2.2 0.6 0.9 0.5 1.4 1.4 0.6-0.9 1.6-1.4 1-0.6 2.2-0.6 2 0 3.1 1.3 1.1 1.2 1.1 3.2v8.3h-2.8v-7.6q0-1.3-0.6-2-0.6-0.7-1.7-0.7-1 0-1.7 0.7-0.6 0.7-0.6 1.9v7.7h-2.8v-7.5q0-1.3-0.6-2.1-0.7-0.7-1.8-0.7-1 0-1.7 0.7-0.6 0.8-0.6 1.9v7.7h-2.8zm20.9-4.5h2.8v2.6h-2.8zm0 4.4h2.8v12.4h-2.8zm6.2 0h2.5v1.4q0.7-0.8 1.7-1.3 1-0.4 2.4-0.4 1.3 0 2.2 0.4 0.9 0.5 1.5 1.2 0.5 0.7 0.8 1.5 0.2 0.8 0.3 1.5 0.1 0.8 0.1 1.2v6.9h-2.8v-5.9q0-0.6-0.1-1.3-0.1-0.7-0.4-1.4-0.3-0.7-0.9-1.1-0.6-0.4-1.5-0.4-0.7 0-1.4 0.3-0.7 0.3-1.1 1.1-0.5 0.9-0.5 2.4v6.3h-2.8z"/><path class="c" d="m5.1 8.8v-5h1.5c1.9 0 2.7 0.9 2.7 2.4 0 1.6-0.8 2.6-2.9 2.6zm-3.7-8v16.2h3.7v-5.2h1.8c3.2 0 6.1-1.9 6.1-5.6 0-3.1-2.4-5.4-6.1-5.4zm18.3 9.9l0.1-0.6c1.6-5.3 1.8-6.6 1.8-6.6 0 0 0.2 1.3 1.8 6.6l0.2 0.6zm5.7 6.3h4l-5.4-16.2h-4.7l-5.4 16.2h3.9l1-3.3h5.6zm19.7-16.2h-4.3l-1.1 2.4c-1.9 4.1-2.1 5.1-2.1 5.1 0 0-0.3-1-2-5.1l-1-2.4h-4.3l5.5 10.3v5.9h3.7v-6zm5.5 3h1.9c1.4 0 2.3 0.9 2.3 2.2 0 1.6-0.7 2.4-2.4 2.4h-1.8zm4.7 13.2h4.4l-4.1-6.2c1.7-0.8 2.9-2.3 2.9-4.8 0-3.1-2.3-5.2-6-5.2h-5.6v16.2h3.7v-5.6h1.2zm6.6 0h3.7v-16.2h-3.7zm17.8-16.2h-11.6v3h4v13.2h3.7v-13.2h3.9zm6 13.2v-3.7h5.6v-2.9h-5.6v-3.7h6.3v-2.9h-10v16.2h10.1v-3z"/></svg>